{
    "asset" : {
        "generator" : "Khronos glTF Blender I/O v3.2.43",
        "version" : "2.0"
    },
    "scene" : 0,
    "scenes" : [
        {
            "name" : "Scene",
            "nodes" : [
                18
            ]
        }
    ],
    "nodes" : [
        {
            "mesh" : 0,
            "name" : "Material-material.001"
        },
        {
            "mesh" : 1,
            "name" : "Material_007-material.003"
        },
        {
            "children" : [
                0,
                1
            ],
            "name" : "Cube.022",
            "scale" : [
                2.7085530757904053,
                2.066396951675415,
                2.7085530757904053
            ],
            "translation" : [
                -16.232017517089844,
                28.969419479370117,
                -1.0750477313995361
            ]
        },
        {
            "mesh" : 2,
            "name" : "Material_024-material"
        },
        {
            "children" : [
                3
            ],
            "name" : "Cube.025",
            "scale" : [
                0.5916994214057922,
                1.7114850282669067,
                1.4439079761505127
            ],
            "translation" : [
                -17.43109893798828,
                29.247159957885742,
                3.444242238998413
            ]
        },
        {
            "mesh" : 3,
            "name" : "Material_023-material"
        },
        {
            "children" : [
                5
            ],
            "name" : "Cube.054",
            "rotation" : [
                0,
                0,
                0.7071068286895752,
                0.7071067094802856
            ],
            "scale" : [
                1.3465341329574585,
                1.3465341329574585,
                0.3128814995288849
            ],
            "translation" : [
                -19.439769744873047,
                29.760229110717773,
                2.6863512992858887
            ]
        },
        {
            "mesh" : 4,
            "name" : "Material_001-material.001"
        },
        {
            "children" : [
                7
            ],
            "name" : "Cube.056",
            "rotation" : [
                0,
                0,
                -0.3091897964477539,
                0.9510003328323364
            ],
            "scale" : [
                0.29658135771751404,
                0.29658135771751404,
                0.2965813875198364
            ],
            "translation" : [
                -15.29391860961914,
                28.793729782104492,
                3.5804941654205322
            ]
        },
        {
            "mesh" : 5,
            "name" : "Material_025-material"
        },
        {
            "children" : [
                9
            ],
            "name" : "Cube.077",
            "scale" : [
                1.5814629793167114,
                0.5838729739189148,
                0.10835219919681549
            ],
            "translation" : [
                -12.564208984375,
                30.136310577392578,
                2.1189613342285156
            ]
        },
        {
            "mesh" : 6,
            "name" : "Material_023-material.001",
            "translation" : [
                0,
                0,
                -3.7431416330946377e-06
            ]
        },
        {
            "children" : [
                11
            ],
            "name" : "Cube.078",
            "rotation" : [
                0,
                0,
                0.7223342657089233,
                0.6915440559387207
            ],
            "scale" : [
                1.3465335369110107,
                1.3465335369110107,
                0.3128814995288849
            ],
            "translation" : [
                -6.4541730880737305,
                29.739700317382812,
                2.6863512992858887
            ]
        },
        {
            "mesh" : 7,
            "name" : "Material_001-material.002"
        },
        {
            "children" : [
                13
            ],
            "name" : "Cube.079",
            "rotation" : [
                0,
                0,
                0.45382875204086304,
                0.8910889625549316
            ],
            "scale" : [
                0.2965814173221588,
                0.2965814173221588,
                0.2965813875198364
            ],
            "translation" : [
                -2.709641933441162,
                31.63174057006836,
                3.5804941654205322
            ]
        },
        {
            "mesh" : 8,
            "name" : "Material_024-material.001"
        },
        {
            "children" : [
                15
            ],
            "name" : "Cube.080",
            "rotation" : [
                0,
                0,
                0.7071068286895752,
                0.7071067094802856
            ],
            "scale" : [
                0.591699481010437,
                1.7114852666854858,
                1.4439079761505127
            ],
            "translation" : [
                -3.163076400756836,
                29.551259994506836,
                3.444242238998413
            ]
        },
        {
            "children" : [
                2,
                4,
                6,
                8,
                10,
                12,
                14,
                16
            ],
            "name" : "Collada visual scene group"
        },
        {
            "children" : [
                17
            ],
            "name" : "Sketchfab_model",
            "rotation" : [
                -0.7071068286895752,
                0,
                0,
                0.7071067094802856
            ],
            "translation" : [
                10.467013359069824,
                4.1189470291137695,
                34.01471710205078
            ]
        }
    ],
    "materials" : [
        {
            "doubleSided" : true,
            "name" : "Material.050",
            "pbrMetallicRoughness" : {
                "baseColorTexture" : {
                    "index" : 0
                },
                "metallicFactor" : 0,
                "roughnessFactor" : 0.6000000238418579
            }
        },
        {
            "doubleSided" : true,
            "name" : "Material.048",
            "pbrMetallicRoughness" : {
                "baseColorTexture" : {
                    "index" : 1
                },
                "metallicFactor" : 0,
                "roughnessFactor" : 0.6000000238418579
            }
        },
        {
            "doubleSided" : true,
            "name" : "Material.046",
            "pbrMetallicRoughness" : {
                "baseColorTexture" : {
                    "index" : 2
                },
                "metallicFactor" : 0,
                "roughnessFactor" : 0.6000000238418579
            }
        },
        {
            "doubleSided" : true,
            "name" : "Material.047",
            "pbrMetallicRoughness" : {
                "baseColorTexture" : {
                    "index" : 3
                },
                "metallicFactor" : 0,
                "roughnessFactor" : 0.6000000238418579
            }
        },
        {
            "doubleSided" : true,
            "name" : "Material.049",
            "pbrMetallicRoughness" : {
                "baseColorTexture" : {
                    "index" : 4
                },
                "metallicFactor" : 0,
                "roughnessFactor" : 0.6000000238418579
            }
        },
        {
            "doubleSided" : true,
            "name" : "Material.045",
            "pbrMetallicRoughness" : {
                "baseColorTexture" : {
                    "index" : 5
                },
                "metallicFactor" : 0,
                "roughnessFactor" : 0.6000000238418579
            }
        }
    ],
    "meshes" : [
        {
            "name" : "Material-material.002",
            "primitives" : [
                {
                    "attributes" : {
                        "POSITION" : 0,
                        "NORMAL" : 1,
                        "TEXCOORD_0" : 2
                    },
                    "indices" : 3,
                    "material" : 0
                }
            ]
        },
        {
            "name" : "Material_007-material.014",
            "primitives" : [
                {
                    "attributes" : {
                        "POSITION" : 4,
                        "NORMAL" : 5,
                        "TEXCOORD_0" : 6
                    },
                    "indices" : 7,
                    "material" : 1
                }
            ]
        },
        {
            "name" : "Material_024-material.003",
            "primitives" : [
                {
                    "attributes" : {
                        "POSITION" : 8,
                        "NORMAL" : 9,
                        "TEXCOORD_0" : 10
                    },
                    "indices" : 11,
                    "material" : 2
                }
            ]
        },
        {
            "name" : "Material_023-material.003",
            "primitives" : [
                {
                    "attributes" : {
                        "POSITION" : 12,
                        "NORMAL" : 13,
                        "TEXCOORD_0" : 14
                    },
                    "indices" : 15,
                    "material" : 3
                }
            ]
        },
        {
            "name" : "Material_001-material.004",
            "primitives" : [
                {
                    "attributes" : {
                        "POSITION" : 16,
                        "NORMAL" : 17,
                        "TEXCOORD_0" : 18
                    },
                    "indices" : 19,
                    "material" : 4
                }
            ]
        },
        {
            "name" : "Material_025-material.002",
            "primitives" : [
                {
                    "attributes" : {
                        "POSITION" : 20,
                        "NORMAL" : 21,
                        "TEXCOORD_0" : 22
                    },
                    "indices" : 11,
                    "material" : 5
                }
            ]
        },
        {
            "name" : "Material_023-material.002",
            "primitives" : [
                {
                    "attributes" : {
                        "POSITION" : 23,
                        "NORMAL" : 24,
                        "TEXCOORD_0" : 25
                    },
                    "indices" : 15,
                    "material" : 3
                }
            ]
        },
        {
            "name" : "Material_001-material.003",
            "primitives" : [
                {
                    "attributes" : {
                        "POSITION" : 26,
                        "NORMAL" : 27,
                        "TEXCOORD_0" : 28
                    },
                    "indices" : 19,
                    "material" : 4
                }
            ]
        },
        {
            "name" : "Material_024-material.002",
            "primitives" : [
                {
                    "attributes" : {
                        "POSITION" : 29,
                        "NORMAL" : 30,
                        "TEXCOORD_0" : 31
                    },
                    "indices" : 11,
                    "material" : 2
                }
            ]
        }
    ],
    "textures" : [
        {
            "sampler" : 0,
            "source" : 0
        },
        {
            "sampler" : 0,
            "source" : 1
        },
        {
            "sampler" : 0,
            "source" : 2
        },
        {
            "sampler" : 0,
            "source" : 3
        },
        {
            "sampler" : 0,
            "source" : 4
        },
        {
            "sampler" : 0,
            "source" : 5
        }
    ],
    "images" : [
        {
            "bufferView" : 4,
            "mimeType" : "image/jpeg",
            "name" : "Material_baseColor"
        },
        {
            "bufferView" : 9,
            "mimeType" : "image/jpeg",
            "name" : "Material.007_baseColor"
        },
        {
            "bufferView" : 14,
            "mimeType" : "image/png",
            "name" : "Material.024_baseColor"
        },
        {
            "bufferView" : 19,
            "mimeType" : "image/png",
            "name" : "Material.023_baseColor"
        },
        {
            "bufferView" : 24,
            "mimeType" : "image/jpeg",
            "name" : "Material.001_baseColor"
        },
        {
            "bufferView" : 28,
            "mimeType" : "image/jpeg",
            "name" : "Material.025_baseColor"
        }
    ],
    "accessors" : [
        {
            "bufferView" : 0,
            "componentType" : 5126,
            "count" : 60,
            "max" : [
                5.7978668212890625,
                5.393846035003662,
                1.1692190170288086
            ],
            "min" : [
                -2.302135944366455,
                -1.2097829580307007,
                1
            ],
            "type" : "VEC3"
        },
        {
            "bufferView" : 1,
            "componentType" : 5126,
            "count" : 60,
            "type" : "VEC3"
        },
        {
            "bufferView" : 2,
            "componentType" : 5126,
            "count" : 60,
            "type" : "VEC2"
        },
        {
            "bufferView" : 3,
            "componentType" : 5123,
            "count" : 102,
            "type" : "SCALAR"
        },
        {
            "bufferView" : 5,
            "componentType" : 5126,
            "count" : 39,
            "max" : [
                5.7978668212890625,
                5.393846035003662,
                1
            ],
            "min" : [
                -2.1555700302124023,
                -1,
                -1.2798789739608765
            ],
            "type" : "VEC3"
        },
        {
            "bufferView" : 6,
            "componentType" : 5126,
            "count" : 39,
            "type" : "VEC3"
        },
        {
            "bufferView" : 7,
            "componentType" : 5126,
            "count" : 39,
            "type" : "VEC2"
        },
        {
            "bufferView" : 8,
            "componentType" : 5123,
            "count" : 60,
            "type" : "SCALAR"
        },
        {
            "bufferView" : 10,
            "componentType" : 5126,
            "count" : 24,
            "max" : [
                1,
                1,
                1
            ],
            "min" : [
                -1,
                -1,
                -1
            ],
            "type" : "VEC3"
        },
        {
            "bufferView" : 11,
            "componentType" : 5126,
            "count" : 24,
            "type" : "VEC3"
        },
        {
            "bufferView" : 12,
            "componentType" : 5126,
            "count" : 24,
            "type" : "VEC2"
        },
        {
            "bufferView" : 13,
            "componentType" : 5123,
            "count" : 36,
            "type" : "SCALAR"
        },
        {
            "bufferView" : 15,
            "componentType" : 5126,
            "count" : 78,
            "max" : [
                1.1218249797821045,
                1.0030349493026733,
                3.264554023742676
            ],
            "min" : [
                -0.8781747221946716,
                -0.9969651103019714,
                -2.2599658966064453
            ],
            "type" : "VEC3"
        },
        {
            "bufferView" : 16,
            "componentType" : 5126,
            "count" : 78,
            "type" : "VEC3"
        },
        {
            "bufferView" : 17,
            "componentType" : 5126,
            "count" : 78,
            "type" : "VEC2"
        },
        {
            "bufferView" : 18,
            "componentType" : 5123,
            "count" : 144,
            "type" : "SCALAR"
        },
        {
            "bufferView" : 20,
            "componentType" : 5126,
            "count" : 124,
            "max" : [
                5.6195759773254395,
                1.1090660095214844,
                5.3196611404418945
            ],
            "min" : [
                -5.6195759773254395,
                -1.6307909488677979,
                -5.140292167663574
            ],
            "type" : "VEC3"
        },
        {
            "bufferView" : 21,
            "componentType" : 5126,
            "count" : 124,
            "type" : "VEC3"
        },
        {
            "bufferView" : 22,
            "componentType" : 5126,
            "count" : 124,
            "type" : "VEC2"
        },
        {
            "bufferView" : 23,
            "componentType" : 5123,
            "count" : 138,
            "type" : "SCALAR"
        },
        {
            "bufferView" : 25,
            "componentType" : 5126,
            "count" : 24,
            "max" : [
                1.1646100282669067,
                1,
                1
            ],
            "min" : [
                -1.1999989748001099,
                -1,
                -1
            ],
            "type" : "VEC3"
        },
        {
            "bufferView" : 26,
            "componentType" : 5126,
            "count" : 24,
            "type" : "VEC3"
        },
        {
            "bufferView" : 27,
            "componentType" : 5126,
            "count" : 24,
            "type" : "VEC2"
        },
        {
            "bufferView" : 29,
            "componentType" : 5126,
            "count" : 78,
            "max" : [
                1.1218249797821045,
                1.0030349493026733,
                3.264554023742676
            ],
            "min" : [
                -0.8781747221946716,
                -0.9969651103019714,
                -2.2599658966064453
            ],
            "type" : "VEC3"
        },
        {
            "bufferView" : 30,
            "componentType" : 5126,
            "count" : 78,
            "type" : "VEC3"
        },
        {
            "bufferView" : 31,
            "componentType" : 5126,
            "count" : 78,
            "type" : "VEC2"
        },
        {
            "bufferView" : 32,
            "componentType" : 5126,
            "count" : 124,
            "max" : [
                5.6195759773254395,
                1.1090660095214844,
                5.3196611404418945
            ],
            "min" : [
                -5.6195759773254395,
                -1.6307909488677979,
                -5.140292167663574
            ],
            "type" : "VEC3"
        },
        {
            "bufferView" : 33,
            "componentType" : 5126,
            "count" : 124,
            "type" : "VEC3"
        },
        {
            "bufferView" : 34,
            "componentType" : 5126,
            "count" : 124,
            "type" : "VEC2"
        },
        {
            "bufferView" : 35,
            "componentType" : 5126,
            "count" : 24,
            "max" : [
                1,
                1,
                1
            ],
            "min" : [
                -1,
                -1,
                -1
            ],
            "type" : "VEC3"
        },
        {
            "bufferView" : 36,
            "componentType" : 5126,
            "count" : 24,
            "type" : "VEC3"
        },
        {
            "bufferView" : 37,
            "componentType" : 5126,
            "count" : 24,
            "type" : "VEC2"
        }
    ],
    "bufferViews" : [
        {
            "buffer" : 0,
            "byteLength" : 720,
            "byteOffset" : 0
        },
        {
            "buffer" : 0,
            "byteLength" : 720,
            "byteOffset" : 720
        },
        {
            "buffer" : 0,
            "byteLength" : 480,
            "byteOffset" : 1440
        },
        {
            "buffer" : 0,
            "byteLength" : 204,
            "byteOffset" : 1920
        },
        {
            "buffer" : 0,
            "byteLength" : 23536,
            "byteOffset" : 2124
        },
        {
            "buffer" : 0,
            "byteLength" : 468,
            "byteOffset" : 25660
        },
        {
            "buffer" : 0,
            "byteLength" : 468,
            "byteOffset" : 26128
        },
        {
            "buffer" : 0,
            "byteLength" : 312,
            "byteOffset" : 26596
        },
        {
            "buffer" : 0,
            "byteLength" : 120,
            "byteOffset" : 26908
        },
        {
            "buffer" : 0,
            "byteLength" : 23709,
            "byteOffset" : 27028
        },
        {
            "buffer" : 0,
            "byteLength" : 288,
            "byteOffset" : 50740
        },
        {
            "buffer" : 0,
            "byteLength" : 288,
            "byteOffset" : 51028
        },
        {
            "buffer" : 0,
            "byteLength" : 192,
            "byteOffset" : 51316
        },
        {
            "buffer" : 0,
            "byteLength" : 72,
            "byteOffset" : 51508
        },
        {
            "buffer" : 0,
            "byteLength" : 41884,
            "byteOffset" : 51580
        },
        {
            "buffer" : 0,
            "byteLength" : 936,
            "byteOffset" : 93464
        },
        {
            "buffer" : 0,
            "byteLength" : 936,
            "byteOffset" : 94400
        },
        {
            "buffer" : 0,
            "byteLength" : 624,
            "byteOffset" : 95336
        },
        {
            "buffer" : 0,
            "byteLength" : 288,
            "byteOffset" : 95960
        },
        {
            "buffer" : 0,
            "byteLength" : 45401,
            "byteOffset" : 96248
        },
        {
            "buffer" : 0,
            "byteLength" : 1488,
            "byteOffset" : 141652
        },
        {
            "buffer" : 0,
            "byteLength" : 1488,
            "byteOffset" : 143140
        },
        {
            "buffer" : 0,
            "byteLength" : 992,
            "byteOffset" : 144628
        },
        {
            "buffer" : 0,
            "byteLength" : 276,
            "byteOffset" : 145620
        },
        {
            "buffer" : 0,
            "byteLength" : 3854,
            "byteOffset" : 145896
        },
        {
            "buffer" : 0,
            "byteLength" : 288,
            "byteOffset" : 149752
        },
        {
            "buffer" : 0,
            "byteLength" : 288,
            "byteOffset" : 150040
        },
        {
            "buffer" : 0,
            "byteLength" : 192,
            "byteOffset" : 150328
        },
        {
            "buffer" : 0,
            "byteLength" : 10905,
            "byteOffset" : 150520
        },
        {
            "buffer" : 0,
            "byteLength" : 936,
            "byteOffset" : 161428
        },
        {
            "buffer" : 0,
            "byteLength" : 936,
            "byteOffset" : 162364
        },
        {
            "buffer" : 0,
            "byteLength" : 624,
            "byteOffset" : 163300
        },
        {
            "buffer" : 0,
            "byteLength" : 1488,
            "byteOffset" : 163924
        },
        {
            "buffer" : 0,
            "byteLength" : 1488,
            "byteOffset" : 165412
        },
        {
            "buffer" : 0,
            "byteLength" : 992,
            "byteOffset" : 166900
        },
        {
            "buffer" : 0,
            "byteLength" : 288,
            "byteOffset" : 167892
        },
        {
            "buffer" : 0,
            "byteLength" : 288,
            "byteOffset" : 168180
        },
        {
            "buffer" : 0,
            "byteLength" : 192,
            "byteOffset" : 168468
        }
    ],
    "samplers" : [
        {
            "magFilter" : 9729,
            "minFilter" : 9987
        }
    ],
    "buffers" : [
        {
            "byteLength" : 168660,
            "uri" : "data:application/octet-stream;base64,"
        }
    ]
}
