{
    "asset" : {
        "generator" : "Khronos glTF Blender I/O v3.2.43",
        "version" : "2.0"
    },
    "scene" : 0,
    "scenes" : [
        {
            "name" : "Scene",
            "nodes" : [
                12
            ]
        }
    ],
    "nodes" : [
        {
            "mesh" : 0,
            "name" : "polySurface39_Metal_0.001",
            "translation" : [
                -1.160717248916626,
                2.8938658237457275,
                64.94337463378906
            ]
        },
        {
            "children" : [
                0
            ],
            "name" : "polySurface39",
            "translation" : [
                0,
                0,
                7.62939453125e-06
            ]
        },
        {
            "children" : [
                1
            ],
            "name" : "Door",
            "translation" : [
                0,
                0,
                7.62939453125e-06
            ]
        },
        {
            "mesh" : 1,
            "name" : "polySurface37_Glass_0.001",
            "translation" : [
                0,
                0,
                57.136741638183594
            ]
        },
        {
            "children" : [
                3
            ],
            "name" : "polySurface37",
            "translation" : [
                0,
                0,
                7.62939453125e-06
            ]
        },
        {
            "mesh" : 2,
            "name" : "polySurface46_Glass_0.001",
            "translation" : [
                0,
                0,
                57.136741638183594
            ]
        },
        {
            "children" : [
                5
            ],
            "name" : "polySurface46",
            "translation" : [
                0,
                0,
                7.62939453125e-06
            ]
        },
        {
            "children" : [
                4,
                6
            ],
            "name" : "Glass2",
            "translation" : [
                0,
                0,
                7.62939453125e-06
            ]
        },
        {
            "children" : [
                2,
                7
            ],
            "name" : "Rama",
            "translation" : [
                0,
                0,
                7.62939453125e-06
            ]
        },
        {
            "children" : [
                8
            ],
            "name" : "RootNode",
            "translation" : [
                0,
                0,
                7.62939453125e-06
            ]
        },
        {
            "children" : [
                9
            ],
            "name" : "Object_2",
            "translation" : [
                0,
                0,
                7.62939453125e-06
            ]
        },
        {
            "children" : [
                10
            ],
            "name" : "c9939da985ec4e178052ae7b2446f89b.fbx",
            "rotation" : [
                0.7071068286895752,
                0,
                0,
                0.7071067094802856
            ],
            "translation" : [
                0,
                -7.62939453125e-06,
                0
            ]
        },
        {
            "children" : [
                11
            ],
            "name" : "Sketchfab_model",
            "rotation" : [
                -0.7071068286895752,
                0,
                0,
                0.7071067094802856
            ],
            "scale" : [
                0.3333333432674408,
                0.3333333730697632,
                0.3333333730697632
            ],
            "translation" : [
                0,
                0,
                -21.668052673339844
            ]
        }
    ],
    "materials" : [
        {
            "doubleSided" : true,
            "name" : "Metal.001",
            "pbrMetallicRoughness" : {
                "roughnessFactor" : 0.39171913266181946
            }
        },
        {
            "alphaMode" : "BLEND",
            "doubleSided" : true,
            "name" : "Glass.001",
            "pbrMetallicRoughness" : {
                "baseColorFactor" : [
                    0.16065585613250732,
                    0.2962324023246765,
                    0.3052835762500763,
                    0.7753669023513794
                ],
                "metallicFactor" : 0,
                "roughnessFactor" : 0.1024109497666359
            }
        }
    ],
    "meshes" : [
        {
            "name" : "polySurface39_Metal_0.001",
            "primitives" : [
                {
                    "attributes" : {
                        "POSITION" : 0,
                        "NORMAL" : 1,
                        "TEXCOORD_0" : 2
                    },
                    "indices" : 3,
                    "material" : 0
                }
            ]
        },
        {
            "name" : "polySurface37_Glass_0.001",
            "primitives" : [
                {
                    "attributes" : {
                        "POSITION" : 4,
                        "NORMAL" : 5,
                        "TEXCOORD_0" : 6
                    },
                    "indices" : 7,
                    "material" : 1
                }
            ]
        },
        {
            "name" : "polySurface46_Glass_0.001",
            "primitives" : [
                {
                    "attributes" : {
                        "POSITION" : 8,
                        "NORMAL" : 9,
                        "TEXCOORD_0" : 10
                    },
                    "indices" : 7,
                    "material" : 1
                }
            ]
        }
    ],
    "accessors" : [
        {
            "bufferView" : 0,
            "componentType" : 5126,
            "count" : 202,
            "max" : [
                1.3739283084869385,
                3.6153838634490967,
                0.20000076293945312
            ],
            "min" : [
                -1.368455171585083,
                -2.8938639163970947,
                -0.20000076293945312
            ],
            "type" : "VEC3"
        },
        {
            "bufferView" : 1,
            "componentType" : 5126,
            "count" : 202,
            "type" : "VEC3"
        },
        {
            "bufferView" : 2,
            "componentType" : 5126,
            "count" : 202,
            "type" : "VEC2"
        },
        {
            "bufferView" : 3,
            "componentType" : 5123,
            "count" : 300,
            "type" : "SCALAR"
        },
        {
            "bufferView" : 4,
            "componentType" : 5126,
            "count" : 28,
            "max" : [
                -0.05555248260498047,
                1.7588392496109009,
                7.893669128417969
            ],
            "min" : [
                -2.270669460296631,
                0.7702334523200989,
                7.695106506347656
            ],
            "type" : "VEC3"
        },
        {
            "bufferView" : 5,
            "componentType" : 5126,
            "count" : 28,
            "type" : "VEC3"
        },
        {
            "bufferView" : 6,
            "componentType" : 5126,
            "count" : 28,
            "type" : "VEC2"
        },
        {
            "bufferView" : 7,
            "componentType" : 5123,
            "count" : 36,
            "type" : "SCALAR"
        },
        {
            "bufferView" : 8,
            "componentType" : 5126,
            "count" : 28,
            "max" : [
                -0.05555224418640137,
                6.264699935913086,
                7.893669128417969
            ],
            "min" : [
                -2.270669460296631,
                2.0601658821105957,
                7.695106506347656
            ],
            "type" : "VEC3"
        },
        {
            "bufferView" : 9,
            "componentType" : 5126,
            "count" : 28,
            "type" : "VEC3"
        },
        {
            "bufferView" : 10,
            "componentType" : 5126,
            "count" : 28,
            "type" : "VEC2"
        }
    ],
    "bufferViews" : [
        {
            "buffer" : 0,
            "byteLength" : 2424,
            "byteOffset" : 0
        },
        {
            "buffer" : 0,
            "byteLength" : 2424,
            "byteOffset" : 2424
        },
        {
            "buffer" : 0,
            "byteLength" : 1616,
            "byteOffset" : 4848
        },
        {
            "buffer" : 0,
            "byteLength" : 600,
            "byteOffset" : 6464
        },
        {
            "buffer" : 0,
            "byteLength" : 336,
            "byteOffset" : 7064
        },
        {
            "buffer" : 0,
            "byteLength" : 336,
            "byteOffset" : 7400
        },
        {
            "buffer" : 0,
            "byteLength" : 224,
            "byteOffset" : 7736
        },
        {
            "buffer" : 0,
            "byteLength" : 72,
            "byteOffset" : 7960
        },
        {
            "buffer" : 0,
            "byteLength" : 336,
            "byteOffset" : 8032
        },
        {
            "buffer" : 0,
            "byteLength" : 336,
            "byteOffset" : 8368
        },
        {
            "buffer" : 0,
            "byteLength" : 224,
            "byteOffset" : 8704
        }
    ],
    "buffers" : [
        {
            "byteLength" : 8928,
            "uri" : "data:application/octet-stream;base64,"
        }
    ]
}
